HIERARCHY
ROOT SpineBase
{
  OFFSET 0.000000 0.000000 0.000000
  CHANNELS 6 Xposition Yposition Zposition Zrotation Xrotation Yrotation
  JOINT SpineMid
  {
    OFFSET 0.000000 28.101206 0.000000
    CHANNELS 3 Zrotation Xrotation Yrotation
    JOINT SpineShoulder
    {
      OFFSET -0.069283 20.950119 -0.600387
      CHANNELS 3 Zrotation Xrotation Yrotation
      JOINT Neck
      {
        OFFSET -0.050344 6.953957 -0.470758
        CHANNELS 3 Zrotation Xrotation Yrotation
        JOINT Head
        {
          OFFSET 4.008247 11.752140 2.334778
          CHANNELS 3 Zrotation Xrotation Yrotation
          End Site
          {
            OFFSET 0 0 0
          }
        }
      }
      JOINT ShoulderLeft
      {
        OFFSET -12.209791 -3.141118 -8.852186
        CHANNELS 3 Zrotation Xrotation Yrotation
        JOINT ElbowLeft
        {
          OFFSET -6.095414 -21.459264 -4.842347
          CHANNELS 3 Zrotation Xrotation Yrotation
          JOINT WristLeft
          {
            OFFSET 1.455336 -21.836610 -3.489336
            CHANNELS 3 Zrotation Xrotation Yrotation
            JOINT HandLeft
            {
              OFFSET 2.427244 -7.423457 -0.600637
              CHANNELS 3 Zrotation Xrotation Yrotation
              JOINT HandTipLeft
              {
                OFFSET 0.807601 -6.107747 -1.407218
                CHANNELS 3 Zrotation Xrotation Yrotation
                End Site
                {
                  OFFSET 0 0 0
                }
              }
              JOINT ThumbLeft
              {
                OFFSET -1.911955 -1.352694 -2.467338
                CHANNELS 3 Zrotation Xrotation Yrotation
                End Site
                {
                  OFFSET 0 0 0
                }
              }
            }
          }
        }
      }
      JOINT ShoulderRight
      {
        OFFSET 12.741944 -6.847586 6.925851
        CHANNELS 3 Zrotation Xrotation Yrotation
        JOINT ElbowRight
        {
          OFFSET 1.388716 -26.636082 4.015886
          CHANNELS 3 Zrotation Xrotation Yrotation
          JOINT WristRight
          {
            OFFSET 0.362183 -20.792803 -5.645267
            CHANNELS 3 Zrotation Xrotation Yrotation
            JOINT HandRight
            {
              OFFSET -1.589225 -5.568184 -1.368268
              CHANNELS 3 Zrotation Xrotation Yrotation
              JOINT HandTipRight
              {
                OFFSET 0.211330 -5.147940 -0.155086
                CHANNELS 3 Zrotation Xrotation Yrotation
                End Site
                {
                  OFFSET 0 0 0
                }
              }
              JOINT ThumbRight
              {
                OFFSET -2.848316 0.882647 -2.028380
                CHANNELS 3 Zrotation Xrotation Yrotation
                End Site
                {
                  OFFSET 0 0 0
                }
              }
            }
          }
        }
      }
    }
  }
  JOINT HipLeft
  {
    OFFSET -5.567610 1.684082 -6.326267
    CHANNELS 3 Zrotation Xrotation Yrotation
    JOINT KneeLeft
    {
      OFFSET -11.231520 -30.973169 2.004899
      CHANNELS 3 Zrotation Xrotation Yrotation
      JOINT AnkleLeft
      {
        OFFSET -4.554203 -28.920114 6.371918
        CHANNELS 3 Zrotation Xrotation Yrotation
        JOINT FootLeft
        {
          OFFSET 4.294106 -3.684687 -10.635911
          CHANNELS 3 Zrotation Xrotation Yrotation
          End Site
          {
            OFFSET 0 0 0
          }
        }
      }
    }
  }
  JOINT HipRight
  {
    OFFSET 5.019460 0.153746 0.234596
    CHANNELS 3 Zrotation Xrotation Yrotation
    JOINT KneeRight
    {
      OFFSET -7.327790 -30.115600 4.963897
      CHANNELS 3 Zrotation Xrotation Yrotation
      JOINT AnkleRight
      {
        OFFSET -11.696709 -30.983529 6.418867
        CHANNELS 3 Zrotation Xrotation Yrotation
        JOINT FootRight
        {
          OFFSET 4.396483 -3.631245 -10.572153
          CHANNELS 3 Zrotation Xrotation Yrotation
          End Site
          {
            OFFSET 0 0 0
          }
        }
      }
    }
  }
}
MOTION
Frames: 14
Frame Time: 0.033333
28.039424 69.086589 324.558807 -0.000000 0.000000 -31.786714 -0.000000 0.000000 31.786714 -0.000000 0.000000 0.000000 -0.000000 0.000000 0.000000 0.000000 0.000000 0.000000 -0.000000 0.000000 0.000000 -0.000000 0.000000 0.000000 -0.000000 0.000000 0.000000 -0.000000 0.000000 0.000000 0.000000 0.000000 0.000000 0.000000 0.000000 0.000000 -0.000000 0.000000 0.000000 -0.000000 0.000000 0.000000 -0.000000 0.000000 0.000000 -0.000000 0.000000 0.000000 0.000000 0.000000 0.000000 0.000000 0.000000 0.000000 -0.000000 0.000000 31.786714 -0.000000 0.000000 0.000000 -0.000000 0.000000 0.000000 0.000000 0.000000 0.000000 -0.000000 0.000000 31.786714 -0.000000 0.000000 0.000000 -0.000000 0.000000 0.000000 0.000000 0.000000 0.000000
28.030599 69.104609 324.553251 0.001789 0.015211 -32.056060 0.006556 -0.013841 32.056060 -0.000000 0.000000 0.000000 -0.000000 0.000000 0.000000 0.000000 0.000000 0.000000 -0.000000 0.000000 0.000000 1.258891 0.242437 -0.187475 -3.697216 -1.232482 0.027198 3.255949 2.270228 0.060891 0.000000 0.000000 0.000000 0.000000 0.000000 0.000000 -0.000000 0.000000 0.000000 -0.000000 0.000000 0.000000 2.033822 2.305084 -1.198834 -4.042111 0.343979 1.253718 0.000000 0.000000 0.000000 0.000000 0.000000 0.000000 0.006556 -0.013841 32.056060 -0.000000 0.000000 0.000000 -0.000000 0.000000 0.000000 0.000000 0.000000 0.000000 0.006556 -0.013841 32.056060 -0.000000 0.000000 0.000000 -2.285262 -5.090861 0.454768 0.000000 0.000000 0.000000
28.021343 69.117945 324.551944 0.003990 0.028587 -32.261967 0.011886 -0.026304 32.261968 -0.000000 0.000000 0.000000 -0.000000 0.000000 0.000000 0.000000 0.000000 0.000000 -0.000000 0.000000 0.000000 2.276889 0.438643 -0.342697 -6.702532 -2.239144 -0.000531 5.989570 4.005623 0.008221 0.000000 0.000000 0.000000 0.000000 0.000000 0.000000 -0.000000 0.000000 0.000000 -1.218540 -0.514557 0.316857 5.050923 4.556692 -2.596178 -7.344462 0.390174 2.142155 0.000000 0.000000 0.000000 0.000000 0.000000 0.000000 0.011886 -0.026304 32.261968 -0.000000 0.000000 0.000000 -0.000000 0.000000 0.000000 0.000000 0.000000 0.000000 0.011886 -0.026304 32.261968 -0.000000 0.000000 0.000000 -4.821475 -10.735854 0.823067 0.000000 0.000000 0.000000
28.011657 69.126597 324.554885 0.006601 0.040126 -32.404699 0.015930 -0.037415 32.404702 -0.000000 0.000000 0.000000 -0.000000 0.000000 0.000000 0.000000 0.000000 0.000000 -0.000000 0.000000 0.000000 3.067733 0.593044 -0.465457 -9.037357 -3.018630 -0.051147 8.209324 5.203606 -0.119973 0.000000 0.000000 0.000000 0.000000 0.000000 0.000000 -0.000000 0.000000 0.000000 -1.677135 -0.712961 0.433362 6.990635 5.946388 -3.571646 -9.907125 0.310702 2.732156 0.000000 0.000000 0.000000 0.000000 0.000000 0.000000 0.015930 -0.037415 32.404702 -0.000000 0.000000 0.000000 -0.000000 0.000000 0.000000 0.000000 0.000000 0.000000 0.015930 -0.037415 32.404702 -0.000000 0.000000 0.000000 -7.579296 -16.778472 1.057737 0.000000 0.000000 0.000000
28.001541 69.130565 324.562075 0.009623 0.049823 -32.484441 0.018641 -0.047196 32.484445 -0.000000 0.000000 0.000000 -0.000000 0.000000 0.000000 0.000000 0.000000 0.000000 -0.000000 0.000000 0.000000 3.642459 0.709107 -0.555791 -10.721042 -3.573321 -0.100326 9.921823 5.866141 -0.292913 0.000000 0.000000 0.000000 0.000000 0.000000 0.000000 0.456966 -0.672906 0.036457 -2.482419 -0.193121 0.513531 8.470495 6.752001 -4.261104 -11.747605 0.214254 3.086285 0.000000 0.000000 0.000000 0.000000 0.000000 0.000000 0.018641 -0.047196 32.484445 -0.000000 0.000000 0.000000 -0.000000 0.000000 0.000000 0.000000 0.000000 0.000000 0.018641 -0.047196 32.484445 -0.000000 0.000000 0.000000 -10.499280 -22.963057 1.125880 0.000000 0.000000 0.000000
27.990995 69.129849 324.573512 0.013056 0.057675 -32.501290 0.019979 -0.055657 32.501294 -0.000000 0.000000 0.000000 -0.000000 0.000000 0.000000 0.000000 0.000000 0.000000 -0.000000 0.000000 0.000000 4.009377 0.789395 -0.613838 -11.768710 -3.906542 -0.130947 11.131019 5.996460 -0.486994 0.000000 0.000000 0.000000 0.000000 0.000000 0.000000 0.462050 -0.687116 0.036568 -2.720541 -0.285651 0.574769 9.462491 6.993279 -4.633801 -12.887141 0.157163 3.251181 0.000000 0.000000 0.000000 0.000000 0.000000 0.000000 0.019979 -0.055657 32.501294 -0.000000 0.000000 0.000000 -0.000000 0.000000 0.000000 0.000000 0.000000 0.000000 0.019979 -0.055657 32.501294 -0.000000 0.000000 0.000000 -13.488229 -28.971585 1.028896 0.000000 0.000000 0.000000
27.986558 69.130287 324.581286 0.030078 0.077996 -32.482051 0.016514 -0.081948 32.482043 -0.000000 0.000000 0.000000 -0.000000 0.000000 0.000000 0.000000 0.000000 0.000000 -0.000000 0.000000 0.000000 3.731860 0.749139 -0.569178 -10.878626 -3.338652 0.017556 9.452408 4.886387 -0.275711 0.000000 0.000000 0.000000 0.000000 0.000000 0.000000 -0.000000 0.000000 0.000000 -2.468817 -1.222538 0.624788 10.653329 7.311109 -5.078287 -14.302818 -0.320972 3.399452 0.000000 0.000000 0.000000 0.000000 0.000000 0.000000 0.016514 -0.081948 32.482043 -0.000000 0.000000 0.000000 -0.000000 0.000000 0.000000 0.000000 0.000000 0.000000 0.016514 -0.081948 32.482043 -0.000000 0.000000 0.000000 -16.723779 -35.083188 1.431186 0.000000 0.000000 0.000000
27.958027 69.118623 324.598553 0.014613 0.081457 -32.339561 0.031228 -0.076639 32.339572 -0.000000 0.000000 0.000000 -0.000000 0.000000 0.000000 0.000000 0.000000 0.000000 -0.000000 0.000000 0.000000 3.786653 0.793831 -0.576722 -11.003512 -3.417733 0.005664 11.252356 4.793381 -0.793755 0.000000 0.000000 0.000000 0.000000 0.000000 0.000000 -0.000000 0.000000 0.000000 -2.539180 -1.264608 0.641610 10.757805 6.863842 -4.946227 -14.692038 -0.786396 3.257823 0.000000 0.000000 0.000000 0.000000 0.000000 0.000000 0.031228 -0.076639 32.339572 -0.000000 0.000000 0.000000 -0.000000 0.000000 0.000000 0.000000 0.000000 0.000000 0.031228 -0.076639 32.339572 -0.000000 0.000000 0.000000 -18.109531 -37.669496 2.074170 0.000000 0.000000 0.000000
27.943250 69.094685 324.637203 0.013663 0.058893 -32.076286 0.019698 -0.057158 32.076289 -0.000000 0.000000 0.000000 -0.000000 0.000000 0.000000 0.000000 0.000000 0.000000 -0.000000 0.000000 0.000000 3.779710 0.799867 -0.575362 -10.974000 -3.515061 -0.034342 12.875892 4.131051 -1.319420 0.000000 0.000000 0.000000 0.000000 0.000000 0.000000 -0.000000 0.000000 0.000000 -2.420185 -1.093506 0.616853 10.160258 5.310769 -4.252997 -12.490502 -0.618745 2.939463 0.000000 0.000000 0.000000 0.000000 0.000000 0.000000 0.019698 -0.057158 32.076289 -0.000000 0.000000 0.000000 -0.000000 0.000000 0.000000 0.000000 0.000000 0.000000 0.019698 -0.057158 32.076289 -0.000000 0.000000 0.000000 -25.449112 -48.515251 -1.974107 0.000000 0.000000 0.000000
27.927788 69.068567 324.683238 0.001143 0.032841 -31.853756 0.016361 -0.028499 31.853759 -0.000000 0.000000 0.000000 -0.000000 0.000000 0.000000 0.000000 0.000000 0.000000 -0.000000 0.000000 0.000000 3.624709 0.746757 -0.551514 -10.400612 -3.135912 0.061928 12.257434 2.528418 -1.384371 0.000000 0.000000 0.000000 0.000000 0.000000 0.000000 -0.000000 0.000000 0.000000 -2.145695 -0.706213 0.558211 8.999155 3.022595 -3.201794 -11.288201 -0.810283 2.317922 0.000000 0.000000 0.000000 0.000000 0.000000 0.000000 0.016361 -0.028499 31.853759 -0.000000 0.000000 0.000000 -0.000000 0.000000 0.000000 0.000000 0.000000 0.000000 0.016361 -0.028499 31.853759 -0.000000 0.000000 0.000000 -25.745131 -49.046704 -1.652250 0.000000 0.000000 0.000000
27.912475 69.039882 324.728227 -0.018025 0.015463 -31.658342 0.023459 -0.003701 31.658345 -0.000000 0.000000 0.000000 -0.000000 0.000000 0.000000 0.000000 0.000000 0.000000 -0.000000 0.000000 0.000000 3.589571 0.700907 -0.547343 -10.518422 -3.327223 -0.019716 12.159788 2.383502 -1.325797 0.000000 0.000000 0.000000 0.000000 0.000000 0.000000 -0.000000 0.000000 0.000000 -1.945597 -0.307390 0.518236 8.613297 0.304544 -2.252548 -11.121864 0.671491 1.867131 0.000000 0.000000 0.000000 0.000000 0.000000 0.000000 0.023459 -0.003701 31.658345 -0.000000 0.000000 0.000000 -0.000000 0.000000 0.000000 0.000000 0.000000 0.000000 0.023459 -0.003701 31.658345 -0.000000 0.000000 0.000000 -21.378401 -43.279269 1.692210 0.000000 0.000000 0.000000
27.900142 69.020481 324.769578 -0.034526 -0.001049 -31.503226 0.028889 0.018935 31.503221 -0.000000 0.000000 0.000000 -0.000000 0.000000 0.000000 0.000000 0.000000 0.000000 -0.000000 0.000000 0.000000 3.596228 0.662978 -0.549805 -10.678407 -3.361826 -0.031346 13.120356 3.628718 -1.452313 0.000000 0.000000 0.000000 0.000000 0.000000 0.000000 -0.000000 0.000000 0.000000 -2.001676 -0.268674 0.534638 9.000159 0.212653 -2.332558 -10.904285 1.907874 2.011749 0.000000 0.000000 0.000000 0.000000 0.000000 0.000000 0.028889 0.018935 31.503221 -0.000000 0.000000 0.000000 -0.000000 0.000000 0.000000 0.000000 0.000000 0.000000 0.028889 0.018935 31.503221 -0.000000 0.000000 0.000000 -20.616990 -42.365062 3.330062 0.000000 0.000000 0.000000
27.905040 69.015299 324.799467 -0.034760 -0.005708 -31.449819 0.026676 0.023005 31.449812 -0.000000 0.000000 0.000000 -0.000000 0.000000 0.000000 0.000000 0.000000 0.000000 -0.000000 0.000000 0.000000 3.566992 0.613838 -0.546761 -10.663783 -3.309404 -0.022817 14.020768 3.479579 -1.714366 0.000000 0.000000 0.000000 0.000000 0.000000 0.000000 -0.000000 0.000000 0.000000 -2.091090 -0.321355 0.556930 9.569361 1.109105 -2.786455 -10.866054 -1.071045 2.095949 0.000000 0.000000 0.000000 0.000000 0.000000 0.000000 0.026676 0.023005 31.449812 -0.000000 0.000000 0.000000 -0.000000 0.000000 0.000000 0.000000 0.000000 0.000000 0.026676 0.023005 31.449812 -0.000000 0.000000 0.000000 -20.056919 -41.685215 4.763427 0.000000 0.000000 0.000000
27.922888 69.017386 324.818216 -0.015678 0.003073 -31.472075 0.014976 0.005564 31.472075 -0.000000 0.000000 0.000000 0.814197 -0.209719 -0.088988 0.000000 0.000000 0.000000 -0.000000 0.000000 0.000000 3.500469 0.551902 -0.538092 -10.632673 -3.146278 0.022506 13.791601 4.845166 -1.545171 0.000000 0.000000 0.000000 0.000000 0.000000 0.000000 -0.000000 0.000000 0.000000 -2.356801 0.045877 0.641860 10.932093 1.044779 -3.214561 -13.325562 -1.306438 2.427376 0.000000 0.000000 0.000000 0.000000 0.000000 0.000000 0.014976 0.005564 31.472075 -0.000000 0.000000 0.000000 -0.000000 0.000000 0.000000 0.000000 0.000000 0.000000 0.014976 0.005564 31.472075 -0.000000 0.000000 0.000000 -19.678263 -41.235103 5.931237 0.000000 0.000000 0.000000
